<?xml version="1.0" encoding="iso-8859-1"?>
<!-- Generator: Adobe Illustrator 19.0.0, SVG Export Plug-In . SVG Version: 6.00 Build 0)  -->
<svg version="1.1" id="Layer_1" xmlns="http://www.w3.org/2000/svg" xmlns:xlink="http://www.w3.org/1999/xlink" x="0px" y="0px"
	 viewBox="0 0 512 512" style="enable-background:new 0 0 512 512;" xml:space="preserve">
<circle style="fill:#FF2746;" cx="256" cy="256" r="256"/>
<path style="fill:#940030;" d="M512,256c0-3.043-0.072-6.068-0.178-9.085l-93.775-93.775L113.778,398.222L225.77,510.214
	C235.685,511.381,245.77,512,256,512C397.384,512,512,397.384,512,256z"/>
<polygon style="fill:#FFAD9E;" points="378.685,113.778 227.556,113.778 227.556,312.889 426.667,312.889 426.667,161.759 "/>
<polygon style="fill:#D3857A;" points="426.667,161.759 378.685,113.778 316.912,113.778 316.912,312.889 426.667,312.889 "/>
<polygon style="fill:#FFFFFF;" points="378.685,161.759 426.667,161.759 378.685,113.778 "/>
<polygon style="fill:#FFC61B;" points="264.907,199.111 113.778,199.111 113.778,398.222 312.889,398.222 312.889,247.093 "/>
<polygon style="fill:#D48B07;" points="312.889,247.093 264.907,199.111 205.433,199.111 205.433,398.222 312.889,398.222 "/>
<polygon style="fill:#FEE187;" points="264.907,247.093 312.889,247.093 264.907,199.111 "/>
<g>
	<rect x="142.222" y="267.636" style="fill:#121149;" width="142.222" height="10.343"/>
	<rect x="142.222" y="344.35" style="fill:#121149;" width="142.222" height="10.343"/>
	<rect x="142.222" y="305.993" style="fill:#121149;" width="142.222" height="10.343"/>
</g>
<g>
</g>
<g>
</g>
<g>
</g>
<g>
</g>
<g>
</g>
<g>
</g>
<g>
</g>
<g>
</g>
<g>
</g>
<g>
</g>
<g>
</g>
<g>
</g>
<g>
</g>
<g>
</g>
<g>
</g>
</svg>
